<svg id="Laag_1" data-name="Laag 1" xmlns="http://www.w3.org/2000/svg" viewBox="0 0 281.13 139.8"><defs><style>.cls-1{fill:gray;stroke:gray;}.cls-1,.cls-3,.cls-4{stroke-miterlimit:10;}.cls-2{fill:#ebef20;}.cls-3,.cls-4,.cls-5{fill:none;}.cls-3{stroke:#3f3f3c;}.cls-3,.cls-4{stroke-width:2px;}.cls-4{stroke:#ebef20;}</style></defs><title>TempoTrackVloer</title><path class="cls-1" d="M52.71,235a8,8,0,0,1,3.9-10.14C80.49,213.15,155.9,219,214,229c64,11,78,7,97,22s-8.59,28.25-11.5,29.5c-21,9-164.9,4.3-232.5-29.5A29.78,29.78,0,0,1,52.71,235Z" transform="translate(-37 -145.2)"/><g id="Achterwiel"><path class="cls-2" d="M152.05,210.86a35,35,0,0,1,.76,7.29l-.1,3.68-.51,3.66a40.28,40.28,0,0,1-5.33,13.74,39.69,39.69,0,0,1-23.25,17.5,40.38,40.38,0,0,1-28.77-3A42.25,42.25,0,0,1,75,232.76a39,39,0,0,1-3.23-14.38A39.6,39.6,0,0,1,74,203.72a41.71,41.71,0,0,1,7.46-12.85A40.88,40.88,0,0,1,93,181.47c1.13-.55,2.22-1.16,3.37-1.64l3.49-1.33,3.62-1c1.21-.3,2.46-.4,3.69-.61l.92-.13c.31,0,.62,0,.93-.05l1.87-.08c.62,0,1.24-.07,1.86-.06l1.86.08a42.26,42.26,0,0,1,7.35,1.14,39.63,39.63,0,0,1,23.49,16.77l-.17.12a40.45,40.45,0,0,0-30.76-16.29l-1.78,0c-.59,0-1.19.07-1.78.1l-1.77.12c-.3,0-.6,0-.89.07l-.88.15c-1.16.23-2.34.37-3.49.66l-3.43.95-3.3,1.3c-1.09.47-2.11,1.06-3.17,1.59a40.43,40.43,0,0,0-18.25,21,39.67,39.67,0,0,0-2.39,14,38.77,38.77,0,0,0,21.78,34.76A37.51,37.51,0,0,0,109,256.77a40.93,40.93,0,0,0,26.84-8,41.11,41.11,0,0,0,9.71-10.37,40.32,40.32,0,0,0,5.61-13.12l.65-3.54.31-3.6a39.11,39.11,0,0,0-.28-7.25Z" transform="translate(-37 -145.2)"/></g><path id="Lichaam" class="cls-3" d="M119.5,217.5c67-11,0-54,0-54s93-46,116,12" transform="translate(-37 -145.2)"/><path id="helmet" class="cls-4" d="M235.5,154.5c33,6,26,34,26,34" transform="translate(-37 -145.2)"/><path id="armen" class="cls-3" d="M190,167c1.91,32.86,46.64,39.16,62,42" transform="translate(-37 -145.2)"/><g id="Voorwiel"><path class="cls-2" d="M240.66,200.17a34.06,34.06,0,0,1,6.66-3.06l3.51-1.1,3.63-.69a40.36,40.36,0,0,1,14.73.63,39.64,39.64,0,0,1,24,16.38,40.29,40.29,0,0,1,6.38,28.22,42.3,42.3,0,0,1-13.44,25.53,38.8,38.8,0,0,1-12.58,7.68A39.61,39.61,0,0,1,259,276.38a41.9,41.9,0,0,1-14.58-2.92,41.27,41.27,0,0,1-12.6-7.9c-.88-.89-1.81-1.73-2.64-2.66L226.81,260l-2.07-3.11c-.67-1-1.17-2.2-1.76-3.3l-.43-.83c-.13-.28-.23-.58-.35-.86l-.67-1.75c-.22-.58-.47-1.15-.65-1.74l-.53-1.79a42.28,42.28,0,0,1-1.28-7.33,39.62,39.62,0,0,1,8.33-27.63l.16.12A40.37,40.37,0,0,0,222,246.15l.54,1.7c.2.56.45,1.1.67,1.65l.69,1.65c.11.27.21.55.34.82l.43.78c.59,1,1.1,2.1,1.74,3.1l2,2.93,2.29,2.71c.79.88,1.69,1.66,2.53,2.5A40.48,40.48,0,0,0,259,274.5a39.55,39.55,0,0,0,14-2.23A38.83,38.83,0,0,0,299,240.47a37.49,37.49,0,0,0-1-14.31,40.61,40.61,0,0,0-6.11-12.88,40.21,40.21,0,0,0-10.1-10,41.37,41.37,0,0,0-12.94-5.86,40.55,40.55,0,0,0-14.23-1.09l-3.56.52-3.51.87a39.26,39.26,0,0,0-6.76,2.59Z" transform="translate(-37 -145.2)"/></g><path class="cls-5" d="M37,230c22-16,35-16,59-13s172,15,180,23" transform="translate(-37 -145.2)"/></svg>