<?xml version="1.0" standalone="no"?>
<!DOCTYPE svg PUBLIC "-//W3C//DTD SVG 20010904//EN"
 "http://www.w3.org/TR/2001/REC-SVG-20010904/DTD/svg10.dtd">
<svg version="1.0" xmlns="http://www.w3.org/2000/svg"
 width="700.000000pt" height="700.000000pt" viewBox="0 0 700.000000 700.000000"
 preserveAspectRatio="xMidYMid meet">
<metadata>
Created by potrace 1.11, written by Peter Selinger 2001-2013
</metadata>
<g transform="translate(0.000000,700.000000) scale(0.100000,-0.100000)"
fill="#000000" stroke="none">
<path d="M0 3500 l0 -3500 3500 0 3500 0 0 3500 0 3500 -3500 0 -3500 0 0
-3500z m4015 1675 c424 -75 735 -291 954 -663 l31 -52 -98 -49 -98 -49 -25 46
c-73 140 -247 322 -388 406 -99 59 -233 111 -361 139 -131 29 -509 31 -675 4
-323 -53 -682 -165 -1035 -322 -117 -52 -463 -226 -458 -230 2 -2 71 -48 153
-103 385 -257 598 -491 650 -716 10 -42 33 -93 69 -149 60 -96 106 -204 137
-322 27 -102 37 -319 19 -437 -61 -420 -381 -784 -793 -902 -432 -124 -901 25
-1182 377 -78 98 -165 268 -200 390 -107 382 -8 785 264 1070 101 106 185 168
316 232 161 79 266 105 450 112 161 6 259 -6 385 -48 34 -11 64 -19 66 -17 4
5 -143 123 -231 185 -109 76 -237 153 -392 234 -79 41 -143 77 -143 81 0 9
260 168 397 242 578 309 1142 500 1643 555 121 14 437 6 545 -14z m932 -86
c103 -13 252 -54 331 -90 248 -112 422 -327 477 -590 18 -85 30 -269 18 -285
-6 -8 -25 -9 -63 -4 -30 5 -76 11 -102 15 l-48 6 0 70 c0 157 -63 335 -155
437 -57 63 -158 131 -250 167 -75 30 -228 65 -284 65 l-34 0 7 77 c3 42 6 91
6 110 0 18 4 33 9 33 5 0 45 -5 88 -11z m-1213 -635 c67 -268 279 -482 607
-615 117 -48 315 -109 352 -109 10 0 68 25 130 55 62 30 157 67 212 82 91 24
116 27 280 27 163 0 189 -3 278 -27 112 -30 256 -95 348 -158 90 -61 228 -197
289 -285 69 -100 133 -238 166 -359 25 -90 27 -117 28 -275 1 -152 -2 -187
-22 -263 -59 -222 -160 -396 -319 -548 -586 -559 -1554 -324 -1821 441 -128
366 -52 787 195 1078 25 29 44 54 42 55 -2 1 -54 19 -116 39 -239 80 -442 198
-588 342 -93 93 -150 172 -206 289 -39 82 -89 250 -77 262 7 7 141 32 179 34
25 1 28 -4 43 -65z"/>
<path d="M1668 3740 c-314 -50 -558 -229 -689 -505 -70 -149 -84 -212 -84
-390 0 -127 4 -162 23 -230 97 -338 360 -581 702 -651 111 -22 301 -15 410 16
149 42 326 151 421 259 157 177 233 376 233 611 -1 130 -13 204 -54 314 l-22
57 -66 -69 c-108 -111 -242 -191 -464 -275 -151 -58 -237 -83 -247 -71 -6 7
-51 159 -55 186 -1 5 59 28 133 53 226 76 388 162 473 252 39 41 78 108 78
134 0 19 -96 112 -162 157 -74 51 -205 110 -293 132 -92 24 -254 33 -337 20z"/>
<path d="M5265 3685 c-5 -2 -41 -6 -78 -10 -38 -4 -67 -8 -65 -10 3 -3 105
-14 278 -30 l65 -6 -7 -82 c-3 -45 -7 -92 -7 -104 -1 -20 -6 -23 -44 -23 -71
0 -351 28 -504 51 l-143 21 -41 -33 c-90 -71 -195 -224 -244 -353 -40 -106
-55 -196 -55 -325 0 -404 263 -749 656 -863 68 -20 102 -23 239 -23 137 0 171
3 240 23 391 113 656 461 656 862 1 64 -6 146 -14 185 -68 322 -301 580 -613
678 -94 30 -283 55 -319 42z"/>
</g>
</svg>
